HIERARCHY
ROOT Hips
{
	OFFSET -0.001795 -0.223333 0.028219
	CHANNELS 6 Xposition Yposition Zposition Zrotation Yrotation Xrotation 
	JOINT LeftUpLeg
	{
		OFFSET 0.069520 -0.091406 -0.006815
		CHANNELS 3 Zrotation Yrotation Xrotation
		JOINT LeftLeg
		{
			OFFSET 0.034277 -0.375199 -0.004496
			CHANNELS 3 Zrotation Yrotation Xrotation
			JOINT LeftFoot
			{
				OFFSET -0.013596 -0.397961 -0.043693
				CHANNELS 3 Zrotation Yrotation Xrotation
				JOINT LeftToe
				{
					OFFSET 0.026358 -0.055791 0.119288
					CHANNELS 3 Zrotation Yrotation Xrotation
					End Site
					{
						OFFSET 0.000000 0.000000 0.000000
					}
				}
			}
		}
	}
	JOINT RightUpLeg
	{
		OFFSET -0.067670 -0.090522 -0.004320
		CHANNELS 3 Zrotation Yrotation Xrotation
		JOINT RightLeg
		{
			OFFSET -0.038290 -0.382569 -0.008850
			CHANNELS 3 Zrotation Yrotation Xrotation
			JOINT RightFoot
			{
				OFFSET 0.015774 -0.398415 -0.042312
				CHANNELS 3 Zrotation Yrotation Xrotation
				JOINT RightToe
				{
					OFFSET -0.025372 -0.048144 0.123348
					CHANNELS 3 Zrotation Yrotation Xrotation
					End Site
					{
						OFFSET 0.000000 0.000000 0.000000
					}
				}
			}
		}
	}
	JOINT Spine
	{
		OFFSET -0.002533 0.108963 -0.026696
		CHANNELS 3 Zrotation Yrotation Xrotation
		JOINT Spine1
		{
			OFFSET 0.005487 0.135180 0.001092
			CHANNELS 3 Zrotation Yrotation Xrotation
			JOINT Spine2
			{
				OFFSET 0.001457 0.052922 0.025425
				CHANNELS 3 Zrotation Yrotation Xrotation
				JOINT Neck
				{
					OFFSET -0.002778 0.213870 -0.042857
					CHANNELS 3 Zrotation Yrotation Xrotation
					JOINT Head
					{
						OFFSET 0.005152 0.064970 0.051349
						CHANNELS 3 Zrotation Yrotation Xrotation
						End Site
						{
							OFFSET 0.000000 0.000000 0.000000
						}
					}
				}
				JOINT LeftShoulder
				{
					OFFSET 0.078845 0.121749 -0.034090
					CHANNELS 3 Zrotation Yrotation Xrotation
					JOINT LeftArm
					{
						OFFSET 0.090977 0.030469 -0.008868
						CHANNELS 3 Zrotation Yrotation Xrotation
						JOINT LeftForeArm
						{
							OFFSET 0.259612 -0.012772 -0.027456
							CHANNELS 3 Zrotation Yrotation Xrotation
							JOINT LeftHand
							{
								OFFSET 0.249234 0.008986 -0.001171
								CHANNELS 3 Zrotation Yrotation Xrotation
								End Site
								{
									OFFSET 0.000000 0.000000 0.000000
								}
							}
						}
					}
				}
				JOINT RightShoulder
				{
					OFFSET -0.081759 0.118833 -0.038615
					CHANNELS 3 Zrotation Yrotation Xrotation
					JOINT RightArm
					{
						OFFSET -0.096012 0.032551 -0.009143
						CHANNELS 3 Zrotation Yrotation Xrotation
						JOINT RightForeArm
						{
							OFFSET -0.253742 -0.013329 -0.021401
							CHANNELS 3 Zrotation Yrotation Xrotation
							JOINT RightHand
							{
								OFFSET -0.255298 0.007772 -0.005559
								CHANNELS 3 Zrotation Yrotation Xrotation
								End Site
								{
									OFFSET 0.000000 0.000000 0.000000
								}
							}
						}
					}
				}
			}
		}
	}
}
MOTION
Frames: 16
Frame Time: 0.050000
0.227960 0.963360 0.352419 -178.487144 58.541524 173.599318 0.787180 -1.228004 -2.794551 -5.638130 -7.052020 22.264186 17.683605 7.908765 16.890945 0.000000 0.000000 0.000000 3.890096 -1.756052 3.705872 -0.065592 -2.884428 1.222056 13.121620 3.269853 13.150971 0.000000 0.000000 0.000000 -3.414654 -2.234841 15.568847 7.058988 2.080211 -27.618021 -1.494755 -0.881948 35.096683 1.663579 7.347125 -23.069982 0.000000 0.000000 0.000000 -24.040635 -4.513346 -44.226752 -47.968010 31.365586 -11.754625 -25.282118 -30.272169 3.186711 0.000000 0.000000 0.000000 23.079854 -9.446713 21.958485 53.256572 33.497260 8.344956 -15.904884 29.981873 -2.739266 0.000000 0.000000 0.000000 
0.230700 0.962706 0.348751 -177.732782 59.155185 174.925645 0.170037 -1.208256 -1.393686 -1.743436 -4.690951 16.876901 15.449187 6.731068 20.011389 0.000000 0.000000 0.000000 4.572024 -1.514404 3.590176 -0.573403 -2.405115 0.536657 12.994400 3.258282 13.032217 0.000000 0.000000 0.000000 -3.109242 -1.825554 14.330608 7.722202 2.012276 -26.694290 -1.720347 -1.708673 35.165043 -0.026360 7.515273 -22.642007 0.000000 0.000000 0.000000 -23.715252 -5.139468 -42.860794 -49.691353 30.300367 -12.159848 -23.471107 -29.600430 2.444501 0.000000 0.000000 0.000000 23.053887 -8.760387 21.946854 52.530681 32.681307 7.610579 -14.979824 30.467840 -2.641279 0.000000 0.000000 0.000000 
0.232020 0.962113 0.344538 -178.053091 59.401244 175.260066 -0.442376 -1.401255 0.910524 0.193124 -2.803526 11.436551 13.513307 5.539261 20.015790 0.000000 0.000000 0.000000 4.338172 -1.586354 3.719025 -0.756180 -2.037099 -0.528308 13.045969 3.248627 12.888052 0.000000 0.000000 0.000000 -2.884840 -1.671435 13.839669 7.811152 1.978621 -26.402630 -2.098493 -2.129057 35.119187 0.214897 7.447436 -22.226048 0.000000 0.000000 0.000000 -23.450581 -5.227917 -42.144752 -49.341649 30.477445 -12.315060 -24.034725 -29.233506 2.471734 0.000000 0.000000 0.000000 23.915569 -8.739694 22.409220 50.889867 32.611526 6.455831 -14.970574 30.501095 -2.644752 0.000000 0.000000 0.000000 
0.231928 0.962096 0.340343 -178.190480 59.722450 175.692885 -0.561840 -1.765453 2.802038 0.487176 -1.857948 7.130337 12.263668 5.146622 20.018040 0.000000 0.000000 0.000000 4.127866 -1.725984 4.262657 -0.886736 -1.573547 -2.382862 12.882832 3.332343 13.297167 0.000000 0.000000 0.000000 -2.969657 -1.463796 13.110174 8.304030 1.878622 -25.736097 -2.377033 -2.507854 34.857721 -0.437103 7.617816 -22.289464 0.000000 0.000000 0.000000 -23.194341 -4.792929 -41.372011 -49.788306 29.813563 -12.523591 -24.237404 -28.362710 2.372717 0.000000 0.000000 0.000000 23.958571 -7.926604 22.709118 50.221664 31.425712 5.518181 -14.579093 31.052318 -2.633260 0.000000 0.000000 0.000000 
0.230751 0.962440 0.336128 -178.617410 59.652295 175.685996 -1.333695 -1.870092 3.977814 1.073457 -1.455995 4.537989 12.014971 4.955659 19.935207 0.000000 0.000000 0.000000 3.478111 -1.808307 3.808147 -0.669034 -1.692701 -2.138262 13.077830 3.432362 13.245161 0.000000 0.000000 0.000000 -3.035030 -1.399370 12.859689 8.561518 1.810415 -25.374793 -2.602147 -2.631601 34.709487 -0.835705 7.403247 -21.697019 0.000000 0.000000 0.000000 -22.997812 -4.713396 -40.989075 -49.688546 29.624196 -12.560239 -24.758691 -27.708329 2.402709 0.000000 0.000000 0.000000 24.580149 -7.983697 23.063449 49.768688 31.182273 4.902620 -14.393658 30.250687 -2.592821 0.000000 0.000000 0.000000 
0.229048 0.962782 0.331835 -179.093523 59.042518 175.230419 -1.868904 -2.101947 5.157634 1.097892 -1.344223 2.565204 11.592423 4.758452 19.902123 0.000000 0.000000 0.000000 2.897103 -2.030428 3.944272 -0.666361 -1.709569 -2.161196 13.080634 3.098231 13.116298 0.000000 0.000000 0.000000 -3.190049 -1.440870 12.983341 8.421065 1.821697 -24.967065 -2.306109 -2.971371 34.724761 -1.529972 7.373109 -21.499447 0.000000 0.000000 0.000000 -22.859998 -4.830382 -41.090845 -49.370780 29.888867 -12.540943 -25.629786 -27.857520 2.663315 0.000000 0.000000 0.000000 24.773720 -7.780090 23.550732 49.317471 31.224394 4.586808 -14.415106 29.084915 -2.553343 0.000000 0.000000 0.000000 
0.227186 0.962608 0.327379 -179.756552 58.395973 174.858040 -2.385606 -2.057931 5.358399 0.919418 -1.390828 1.813864 11.167529 4.478524 19.691057 0.000000 0.000000 0.000000 1.952647 -2.255848 3.330956 -0.290386 -2.059952 -1.275713 13.402631 2.968154 12.646996 0.000000 0.000000 0.000000 -3.211083 -1.412848 12.865978 8.321624 1.827251 -24.709043 -2.187211 -2.924989 34.678800 -2.489647 7.062992 -21.012174 0.000000 0.000000 0.000000 -22.653011 -4.947158 -41.367730 -49.245277 29.757148 -12.422537 -26.166016 -27.586538 2.755737 0.000000 0.000000 0.000000 25.292375 -8.217107 23.999742 49.296400 31.258692 4.290858 -14.278899 28.098445 -2.486856 0.000000 0.000000 0.000000 
0.225555 0.962153 0.322699 179.721292 57.036110 174.140094 -2.788519 -2.310482 6.285309 0.623888 -1.495019 0.687602 10.586775 3.980446 19.328912 0.000000 0.000000 0.000000 1.263017 -2.568535 3.256716 -0.298362 -2.355374 -0.294649 13.560850 2.244186 11.851808 0.000000 0.000000 0.000000 -3.237562 -1.506645 13.221812 7.927047 1.928249 -24.760430 -1.798170 -3.020640 34.955546 -2.998357 6.778430 -20.984195 0.000000 0.000000 0.000000 -21.975324 -5.120272 -41.753175 -49.219616 30.528480 -12.883574 -27.019725 -28.147972 2.965551 0.000000 0.000000 0.000000 25.357153 -8.963693 24.166815 49.610938 31.332961 4.406678 -14.214617 26.764736 -2.377364 0.000000 0.000000 0.000000 
0.224125 0.961532 0.318193 179.155735 55.968133 173.494543 -3.221874 -2.441301 6.838703 0.320794 -1.621193 0.078596 10.139688 3.592963 18.998528 0.000000 0.000000 0.000000 0.491224 -2.820521 2.442049 -0.315210 -3.000641 1.834342 14.110416 1.962653 10.871928 0.000000 0.000000 0.000000 -3.006868 -1.520626 13.264547 7.210607 2.017457 -24.413009 -1.605730 -3.009535 34.795905 -3.252766 6.388176 -20.824233 0.000000 0.000000 0.000000 -21.436194 -5.628503 -41.972736 -49.545730 30.695535 -13.126084 -27.100969 -28.807975 2.972924 0.000000 0.000000 0.000000 25.826795 -9.445802 24.806931 50.051501 31.562564 4.379170 -14.644050 25.828473 -2.395102 0.000000 0.000000 0.000000 
0.223061 0.960819 0.314292 178.775465 53.484852 172.837645 -3.448596 -2.838887 7.699591 -0.030872 -1.857645 -0.833742 9.132908 2.537447 18.397193 0.000000 0.000000 0.000000 0.018044 -3.139005 1.944630 -0.708508 -3.784647 3.983482 14.284293 0.684549 9.612589 0.000000 0.000000 0.000000 -3.000884 -1.662267 13.738646 6.473764 2.144635 -24.546960 -1.502285 -3.278486 34.799471 -2.972940 5.644623 -20.600416 0.000000 0.000000 0.000000 -20.467008 -6.789705 -42.576176 -49.859589 31.589440 -13.599501 -26.648353 -29.449891 2.785680 0.000000 0.000000 0.000000 26.337028 -10.344354 26.024711 50.219711 32.622354 4.529361 -15.274868 24.399578 -2.424388 0.000000 0.000000 0.000000 
0.222453 0.960331 0.311364 178.714833 51.624531 172.788730 -3.528612 -3.060419 8.023875 -0.146267 -2.024762 -1.410431 8.411003 1.605318 17.944807 0.000000 0.000000 0.000000 0.270981 -3.060349 0.474127 -1.966751 -4.745787 7.085032 14.483697 -0.165229 8.581492 0.000000 0.000000 0.000000 -2.646310 -1.603016 13.510068 5.816802 2.139092 -23.925309 -1.372332 -3.162076 34.361782 -3.554570 4.876803 -20.617578 0.000000 0.000000 0.000000 -19.693812 -7.709822 -43.285533 -50.232763 32.724915 -14.248323 -26.718046 -29.693980 2.658273 0.000000 0.000000 0.000000 26.851835 -10.955677 27.302332 50.724761 33.687138 4.865540 -16.515858 23.276085 -2.510322 0.000000 0.000000 0.000000 
0.222566 0.960056 0.309204 178.510911 49.217355 172.650771 -3.562913 -3.325784 8.301791 -0.354068 -2.277717 -1.978114 7.346735 0.443324 17.536287 0.000000 0.000000 0.000000 0.554628 -3.083318 -0.983473 -3.570925 -6.010739 10.261148 14.619248 -1.064814 7.783524 0.000000 0.000000 0.000000 -2.603160 -1.681667 13.744511 5.319059 2.144491 -23.844905 -1.377009 -3.605116 34.198697 -3.039589 4.415315 -21.176167 0.000000 0.000000 0.000000 -19.027399 -8.149282 -44.460468 -50.373894 33.786221 -14.743955 -26.067751 -29.863512 2.381390 0.000000 0.000000 0.000000 26.809933 -11.275328 28.504298 50.724714 34.919641 5.398534 -17.327214 22.159509 -2.550863 0.000000 0.000000 0.000000 
0.223756 0.960050 0.307636 178.574360 47.401135 172.909078 -3.442434 -3.560358 8.461458 -0.378735 -2.461352 -2.595169 6.568773 -0.471736 17.316602 0.000000 0.000000 0.000000 1.172568 -2.950288 -2.622402 -5.423791 -7.362309 13.352046 14.657570 -1.375714 7.593105 0.000000 0.000000 0.000000 -2.562104 -1.704138 13.753942 5.377550 2.025417 -23.207557 -1.573214 -3.380265 33.719282 -3.422071 3.735060 -21.479600 0.000000 0.000000 0.000000 -18.696335 -8.714801 -45.554068 -50.369128 35.166909 -15.182414 -25.624862 -30.280427 2.247100 0.000000 0.000000 0.000000 26.911844 -11.152268 30.080992 50.509288 36.584677 5.921566 -18.075501 21.631613 -2.681403 0.000000 0.000000 0.000000 
0.226612 0.960164 0.306469 178.597865 45.538816 173.319796 -3.159670 -3.667347 8.207886 -0.501896 -2.641554 -2.761479 5.697729 -1.510834 17.057253 0.000000 0.000000 0.000000 1.370054 -3.062575 -3.686281 -6.307407 -8.563576 15.200043 14.597078 -1.722730 7.534831 0.000000 0.000000 0.000000 -2.894626 -1.756435 13.864017 5.917212 1.996358 -23.395773 -1.918533 -3.389720 33.347388 -2.291366 3.537967 -22.283896 0.000000 0.000000 0.000000 -18.359700 -8.460002 -46.801723 -50.307574 36.346456 -15.675424 -25.317158 -29.725603 2.050605 0.000000 0.000000 0.000000 26.220994 -11.042623 30.830898 50.675872 37.582020 6.879401 -17.847053 21.430841 -2.760316 0.000000 0.000000 0.000000 
0.231410 0.959736 0.305792 178.639752 44.176744 173.530115 -2.923026 -3.890531 8.307148 -0.431203 -2.707706 -2.954900 5.272031 -2.288288 16.754950 0.000000 0.000000 0.000000 1.829766 -2.976291 -4.313652 -7.309433 -9.491745 16.716833 14.579342 -2.052265 7.307018 0.000000 0.000000 0.000000 -3.017334 -1.899439 14.200725 5.949929 1.964604 -23.388811 -1.847357 -3.095536 32.949969 -2.466024 3.033998 -22.692700 0.000000 0.000000 0.000000 -18.261888 -8.533734 -48.191484 -49.386007 37.852414 -15.736660 -25.271356 -29.160409 2.033978 0.000000 0.000000 0.000000 26.008000 -10.745763 32.142428 49.905225 39.393070 7.535578 -19.075448 21.666138 -3.068059 0.000000 0.000000 0.000000 
0.238040 0.959166 0.305734 178.660594 42.319255 173.763038 -2.428436 -4.054124 7.960479 -0.561464 -2.790306 -2.442124 4.654883 -3.471506 16.233624 0.000000 0.000000 0.000000 2.296950 -2.861572 -4.363435 -7.760476 -10.081064 17.277426 14.194798 -3.215735 6.752782 0.000000 0.000000 0.000000 -3.409481 -2.023901 14.432612 6.297189 1.952473 -23.622641 -1.941497 -3.180250 32.562456 -1.813222 2.803993 -23.491830 0.000000 0.000000 0.000000 -18.303492 -8.687570 -49.983283 -48.128693 39.518318 -15.475627 -24.788764 -28.322295 1.936028 0.000000 0.000000 0.000000 24.946848 -10.653057 32.558789 51.246160 40.550728 9.403706 -19.235625 22.223521 -3.297614 0.000000 0.000000 0.000000 
